<svg width="41" height="41" viewBox="0 0 41 41" fill="none" xmlns="http://www.w3.org/2000/svg">
<g filter="url(#filter0_d_146_15984)">
<path d="M22.6072 27.493C26.9036 26.1865 29.4036 21.526 28.0971 17.2295C26.7859 12.9176 22.1146 10.4379 17.8182 11.7444C13.5217 13.0509 11.0373 17.7066 12.3485 22.0185C13.655 26.3149 18.3107 28.7995 22.6072 27.493ZM7.07185 25.5985C8.06096 25.2977 8.63099 24.2295 8.33022 23.2404C8.02474 22.2359 6.96123 21.6813 5.97212 21.982C4.98301 22.2828 4.40829 23.3356 4.71376 24.3401C5.01454 25.3292 6.08274 25.8993 7.07185 25.5985ZM8.12798 14.6911C9.13255 14.3856 9.68712 13.3221 9.38634 12.333C9.08556 11.3439 8.03283 10.7691 7.02826 11.0746C6.03915 11.3754 5.46912 12.4436 5.7699 13.4327C6.07068 14.4218 7.13887 14.9918 8.12798 14.6911ZM16.601 7.74155C17.5901 7.44078 18.1601 6.37257 17.8594 5.38346C17.5586 4.39435 16.4904 3.82432 15.5013 4.1251C14.5121 4.42588 13.9421 5.49408 14.2429 6.48319C14.5437 7.4723 15.6119 8.04233 16.601 7.74155ZM27.5085 8.79766C28.4976 8.49688 29.0676 7.42869 28.7669 6.43957C28.4661 5.45046 27.3979 4.88044 26.4088 5.18122C25.4196 5.482 24.8496 6.55019 25.1504 7.5393C25.4512 8.52842 26.5194 9.09843 27.5085 8.79766ZM34.4579 17.2707C35.447 16.9699 36.0171 15.9017 35.7163 14.9126C35.4108 13.9081 34.3473 13.3535 33.3582 13.6542C32.3691 13.955 31.7944 15.0078 32.0998 16.0123C32.4006 17.0014 33.4688 17.5715 34.4579 17.2707ZM33.4019 28.1782C34.391 27.8774 34.961 26.8092 34.6603 25.8201C34.3547 24.8154 33.2913 24.2609 32.3022 24.5617C31.313 24.8625 30.7383 25.9151 31.0438 26.9198C31.3446 27.9089 32.4128 28.4789 33.4019 28.1782ZM24.9288 35.1276C25.9179 34.8268 26.4879 33.7586 26.1872 32.7695C25.8817 31.765 24.8182 31.2104 23.8291 31.5112C22.8399 31.8119 22.2652 32.8647 22.5707 33.8693C22.8715 34.8584 23.9397 35.4284 24.9288 35.1276ZM14.0214 34.0716C15.026 33.7661 15.5805 32.7026 15.2797 31.7135C14.9742 30.7088 13.9262 30.1496 12.9217 30.4551C11.9325 30.7559 11.3578 31.8085 11.6633 32.8132C11.9641 33.8023 13.0323 34.3723 14.0214 34.0716Z" fill="#FFBB22"/>
<path d="M23.189 29.4065C28.5374 27.7801 31.6399 22.0057 30.0106 16.6476C28.3773 11.2765 22.5871 8.20376 17.2363 9.83088C11.8806 11.4595 8.80318 17.2341 10.435 22.6004C12.0629 27.9536 17.8358 31.0343 23.189 29.4065ZM7.65372 27.512C9.69962 26.8898 10.8658 24.7044 10.2437 22.6585C9.61365 20.5866 7.42551 19.4497 5.39025 20.0686C3.35498 20.6875 2.17023 22.8501 2.80028 24.922C3.42241 26.9679 5.6078 28.1341 7.65372 27.512ZM8.70985 16.6045C10.7818 15.9745 11.9187 13.7863 11.2998 11.7511C10.6809 9.71586 8.51838 8.53106 6.44639 9.16113C4.40049 9.78327 3.23428 11.9687 3.85641 14.0146C4.47855 16.0605 6.66395 17.2267 8.70985 16.6045ZM17.1829 9.65504C19.2288 9.0329 20.395 6.84749 19.7728 4.80159C19.1507 2.75568 16.9653 1.58949 14.9194 2.21162C12.8735 2.83375 11.7073 5.01915 12.3294 7.06506C12.9515 9.11096 15.1369 10.2772 17.1829 9.65504ZM28.0904 10.7111C30.1362 10.089 31.3025 7.90362 30.6803 5.8577C30.0582 3.81178 27.8728 2.6456 25.8269 3.26773C23.781 3.88986 22.6148 6.07525 23.2369 8.12117C23.859 10.1671 26.0445 11.3333 28.0904 10.7111ZM35.0398 19.1842C37.0857 18.562 38.2519 16.3766 37.6298 14.3307C36.9997 12.2588 34.8116 11.1218 32.7763 11.7407C30.7411 12.3596 29.5563 14.5223 30.1863 16.5942C30.8085 18.6401 32.9939 19.8063 35.0398 19.1842ZM33.9838 30.0917C36.0297 29.4695 37.1959 27.2841 36.5737 25.2382C35.9436 23.166 33.7555 22.0293 31.7203 22.6482C29.6851 23.2671 28.5002 25.4295 29.1303 27.5017C29.7524 29.5476 31.9379 30.7138 33.9838 30.0917ZM25.5107 37.0411C27.5566 36.419 28.7228 34.2336 28.1006 32.1877C27.4706 30.1157 25.2824 28.9788 23.2472 29.5977C21.2119 30.2166 20.0272 32.3792 20.6572 34.4511C21.2793 36.497 23.4648 37.6632 25.5107 37.0411ZM14.6033 35.9851C16.6753 35.355 17.8121 33.1668 17.1932 31.1316C16.5663 29.0701 14.4011 27.9148 12.3398 28.5416C10.3046 29.1605 9.1197 31.3229 9.74981 33.3951C10.3719 35.441 12.5573 36.6072 14.6033 35.9851Z" stroke="white" stroke-width="4" stroke-linejoin="round"/>
</g>
<defs>
<filter id="filter0_d_146_15984" x="0.311668" y="0.0439453" width="39.8044" height="40.1226" filterUnits="userSpaceOnUse" color-interpolation-filters="sRGB">
<feFlood flood-opacity="0" result="BackgroundImageFix"/>
<feColorMatrix in="SourceAlpha" type="matrix" values="0 0 0 0 0 0 0 0 0 0 0 0 0 0 0 0 0 0 127 0" result="hardAlpha"/>
<feOffset dy="0.638383"/>
<feGaussianBlur stdDeviation="0.159596"/>
<feComposite in2="hardAlpha" operator="out"/>
<feColorMatrix type="matrix" values="0 0 0 0 0 0 0 0 0 0 0 0 0 0 0 0 0 0 0.16 0"/>
<feBlend mode="normal" in2="BackgroundImageFix" result="effect1_dropShadow_146_15984"/>
<feBlend mode="normal" in="SourceGraphic" in2="effect1_dropShadow_146_15984" result="shape"/>
</filter>
</defs>
</svg>
