<svg width="50" height="48" viewBox="0 0 50 48" fill="none" xmlns="http://www.w3.org/2000/svg">
<g filter="url(#filter0_d_146_15983)">
<path d="M16.6931 40.0235C22.9139 42.2711 29.1007 40.9999 33.3351 36.4516C33.8115 35.9419 33.97 35.3952 33.772 34.9729C33.624 34.6274 33.1541 34.4185 32.5686 34.4212C30.9329 34.4731 29.2134 34.1637 27.3352 33.4851C19.5291 30.6647 16.2656 23.9527 19.03 16.3017C19.7336 14.3545 20.8861 12.2968 21.9016 11.3195C22.4125 10.8222 22.6055 10.2881 22.4418 9.87826C22.2734 9.42779 21.7579 9.18308 20.9925 9.19874C14.9427 9.38963 9.38812 13.6557 7.10936 19.9627C4.08349 28.3373 7.99103 36.8793 16.6931 40.0235ZM35.3422 28.9556C35.6696 29.0739 35.9745 28.9309 36.1334 28.5986C38.3646 24.2032 38.6321 24.1634 43.5759 25.0925C43.9565 25.1716 44.2489 25.063 44.3672 24.7356C44.4855 24.4082 44.3363 24.1204 44.0621 23.9629C39.6814 21.3671 39.4168 21.291 40.5104 16.4846C40.6005 16.1275 40.4575 15.8226 40.13 15.7042C39.8199 15.5922 39.5149 15.7352 39.345 16.044C37.0717 20.5021 36.8433 20.5949 31.8273 19.5424C31.5219 19.471 31.217 19.6141 31.0987 19.9415C30.9867 20.2517 31.1359 20.5394 31.4101 20.6969C35.8534 23.3348 36.0085 23.3908 34.9494 28.2097C34.8889 28.5386 35.032 28.8435 35.3422 28.9556ZM31.3203 14.3135C31.5272 14.3882 31.6742 14.305 31.7771 14.1279C33.351 11.4431 33.3587 11.368 36.5625 11.8826C36.7644 11.9167 36.946 11.8459 37.0207 11.6391C37.0954 11.4323 37.001 11.2619 36.8239 11.1589C34.0436 9.47249 34.1719 9.44091 34.5788 6.37349C34.6129 6.17151 34.5531 6.01353 34.3462 5.93878C34.1394 5.86408 33.9753 5.94114 33.8722 6.1182C32.2419 8.74358 32.3204 8.84987 29.1041 8.36962C28.8849 8.32939 28.7207 8.40644 28.646 8.61323C28.5713 8.82001 28.6483 8.9842 28.8426 9.09336C31.623 10.7798 31.5762 10.8019 31.0705 13.8726C31.0366 14.0746 31.1136 14.2388 31.3203 14.3135Z" fill="#ED0007"/>
<path d="M32.4855 31.8038C32.5091 31.8031 32.5327 31.8026 32.5563 31.8025C33.1439 31.7998 33.7963 31.8999 34.4179 32.1824C35.0212 32.4566 35.7524 32.9836 36.1596 33.897C36.9906 35.717 36.0469 37.3835 35.2519 38.236L32.4855 31.8038ZM32.4855 31.8038C31.2477 31.8431 29.8612 31.6133 28.2251 31.0222C24.8411 29.7995 22.6712 27.8264 21.5757 25.5637C20.4844 23.3096 20.311 20.463 21.4929 17.1916C22.137 15.4091 23.1192 13.7823 23.7176 13.2064L23.7283 13.196M32.4855 31.8038L23.7283 13.196M23.7283 13.196C24.5092 12.4358 25.6215 10.8221 24.8847 8.9346C24.1111 6.90976 22.0701 6.55738 20.9389 6.58052L20.9099 6.58128M23.7283 13.196L20.9099 6.58128M20.9099 6.58128C13.6623 6.80996 7.24524 11.88 4.64643 19.0728C1.12564 28.8172 5.75045 38.8542 15.8033 42.4864C22.897 45.0494 30.222 43.6372 35.2501 38.2379L20.9099 6.58128ZM36.8878 31.3287C37.6611 30.9759 38.1781 30.3737 38.4778 29.7657C39.0444 28.6501 39.4019 27.985 39.7027 27.5459C39.8198 27.3751 39.8999 27.2819 39.9448 27.2353C40.0177 27.2276 40.1692 27.2204 40.4397 27.2413C41.0207 27.2861 41.8073 27.4248 43.0745 27.6629C43.5959 27.7668 44.3353 27.8027 45.1037 27.4726C45.9663 27.1019 46.5486 26.4048 46.8302 25.6255C47.4565 23.8919 46.5361 22.3764 45.3882 21.7048L45.292 21.6478C44.2074 21.0051 43.5226 20.5993 43.0313 20.2471C42.7675 20.0579 42.6421 19.9399 42.589 19.8838C42.5846 19.8245 42.5825 19.7147 42.5976 19.534C42.6401 19.0258 42.7829 18.3017 43.0594 17.0853C43.2175 16.4262 43.2047 15.6327 42.8356 14.8673C42.4483 14.0643 41.7731 13.5134 41.0199 13.2413C40.3704 13.0066 39.7494 12.9913 39.1911 13.126C39.3109 12.937 39.4087 12.7363 39.4836 12.529C39.7341 11.8356 39.7406 11.036 39.4072 10.2907C39.1025 9.60952 38.6046 9.17159 38.1699 8.91248C37.5874 8.55907 37.2306 8.33562 36.9929 8.1682C37.0149 7.91464 37.0581 7.59161 37.1244 7.09619C37.1388 6.98804 37.1544 6.87168 37.1711 6.74603C37.2354 6.31332 37.2455 5.64731 36.9014 4.94981C36.51 4.15652 35.8476 3.6968 35.2361 3.47585C34.6329 3.25793 33.8668 3.19351 33.0937 3.50425C32.3723 3.79419 31.9087 4.30452 31.6361 4.75512C31.5684 4.86414 31.5059 4.96507 31.4478 5.05879C31.1883 5.47775 31.018 5.75257 30.8757 5.96076C30.5883 5.93729 30.1762 5.88176 29.5165 5.7834C29.0197 5.70198 28.326 5.70772 27.6212 6.07097C26.851 6.4679 26.4013 7.11921 26.183 7.72335C25.9648 8.32752 25.8943 9.11582 26.2329 9.91338C26.5428 10.6433 27.0727 11.0911 27.5067 11.346C28.0876 11.6984 28.4485 11.9218 28.6948 12.0925C28.6614 12.384 28.5951 12.7875 28.4868 13.4456C28.3997 13.9715 28.4206 14.6809 28.801 15.3852C29.1969 16.1183 29.8273 16.5585 30.4304 16.7764C30.6562 16.858 30.9082 16.919 31.1769 16.9453C30.0702 17.1174 29.0678 17.856 28.6358 19.0516C28.0005 20.81 28.9801 22.3078 30.0821 22.954C31.2348 23.6383 31.949 24.0633 32.4496 24.4262C32.696 24.6049 32.8175 24.7185 32.8715 24.775C32.8755 24.8375 32.8766 24.9521 32.8597 25.1398C32.8124 25.6669 32.6649 26.4042 32.3916 27.6475C32.3852 27.6769 32.3792 27.7064 32.3738 27.736C32.1238 29.0954 32.7314 30.7967 34.4523 31.4185C35.2052 31.6906 36.0766 31.6987 36.8878 31.3287ZM39.9882 27.1949C39.9882 27.1951 39.9856 27.1973 39.9805 27.2009C39.9857 27.1965 39.9882 27.1947 39.9882 27.1949ZM39.8936 27.2427C39.8908 27.2436 39.8892 27.2439 39.8891 27.2439C39.8891 27.2438 39.8905 27.2434 39.8936 27.2427ZM42.5967 19.9415C42.5965 19.9418 42.5954 19.938 42.594 19.9295C42.5962 19.937 42.5969 19.9413 42.5967 19.9415ZM36.1415 14.4674C36.4598 14.5195 36.8463 14.5328 37.2595 14.4505C37.1825 14.558 37.1127 14.6687 37.0506 14.7815C37.0374 14.8056 37.0245 14.8299 37.012 14.8544C36.4263 16.0029 36.0598 16.6912 35.7486 17.1506C35.6307 17.3246 35.5489 17.422 35.5017 17.4725C35.427 17.4782 35.2826 17.4813 35.0367 17.4588C34.4574 17.4059 33.6642 17.2519 32.3831 16.9832C32.2421 16.9521 32.1001 16.9306 31.9581 16.9184C32.1864 16.8795 32.4196 16.8114 32.6532 16.7073C33.3933 16.3777 33.816 15.8286 34.0362 15.4523C34.3771 14.8708 34.5863 14.5153 34.7489 14.2686C35.0453 14.2965 35.4667 14.359 36.1415 14.4674ZM35.4526 17.5195C35.4526 17.5194 35.4547 17.5176 35.4589 17.5146C35.4547 17.5182 35.4526 17.5197 35.4526 17.5195ZM35.5624 17.4652C35.5657 17.4643 35.5674 17.464 35.5675 17.464C35.5676 17.4641 35.5659 17.4645 35.5624 17.4652ZM32.7145 18.4261C32.7215 18.4301 32.7286 18.4342 32.7357 18.4385L32.7145 18.4261ZM33.6531 14.3063L33.6545 14.2981C33.654 14.3008 33.6536 14.3036 33.6531 14.3063ZM32.8642 24.7132C32.8643 24.713 32.8652 24.7163 32.8664 24.7237C32.8646 24.7171 32.8641 24.7134 32.8642 24.7132Z" stroke="white" stroke-width="5.23753" stroke-linejoin="round"/>
</g>
<defs>
<filter id="filter0_d_146_15983" x="0.538231" y="0.672852" width="49.4392" height="46.6275" filterUnits="userSpaceOnUse" color-interpolation-filters="sRGB">
<feFlood flood-opacity="0" result="BackgroundImageFix"/>
<feColorMatrix in="SourceAlpha" type="matrix" values="0 0 0 0 0 0 0 0 0 0 0 0 0 0 0 0 0 0 127 0" result="hardAlpha"/>
<feOffset dy="0.638383"/>
<feGaussianBlur stdDeviation="0.159596"/>
<feComposite in2="hardAlpha" operator="out"/>
<feColorMatrix type="matrix" values="0 0 0 0 0 0 0 0 0 0 0 0 0 0 0 0 0 0 0.16 0"/>
<feBlend mode="normal" in2="BackgroundImageFix" result="effect1_dropShadow_146_15983"/>
<feBlend mode="normal" in="SourceGraphic" in2="effect1_dropShadow_146_15983" result="shape"/>
</filter>
</defs>
</svg>
